<?xml version="1.0" standalone="no"?><!DOCTYPE svg PUBLIC "-//W3C//DTD SVG 1.1//EN" "http://www.w3.org/Graphics/SVG/1.1/DTD/svg11.dtd"><svg t="1669173941974" class="icon" viewBox="0 0 1024 1024" version="1.1" xmlns="http://www.w3.org/2000/svg" p-id="3777" xmlns:xlink="http://www.w3.org/1999/xlink" width="128" height="128"><path d="M512 512m-512 0a512 512 0 1 0 1024 0 512 512 0 1 0-1024 0Z" fill="#FBD000" p-id="3778"></path><path d="M784 776c0 35.2-28.8 64-64 64H400c-35.2 0-64-28.8-64-64V264c0-35.2 28.8-64 64-64h320c35.2 0 64 28.8 64 64v512z" fill="#415E6D" p-id="3779"></path><path d="M752 768c0 26.4-21.6 48-48 48H384c-26.4 0-48-21.6-48-48V280c0-26.4 21.6-48 48-48h320c26.4 0 48 21.6 48 48v488z" fill="#FFFFFF" p-id="3780"></path><path d="M672 240h48v576h-48z" fill="#D4D6D6" p-id="3781"></path><path d="M704 824H384c-31.2 0-56-24.8-56-56V280c0-31.2 24.8-56 56-56h320c31.2 0 56 24.8 56 56v488c0 31.2-24.8 56-56 56zM384 240c-22.4 0-40 17.6-40 40v488c0 22.4 17.6 40 40 40h320c22.4 0 40-17.6 40-40V280c0-22.4-17.6-40-40-40H384z" fill="#233E49" p-id="3782"></path><path d="M720 848H400c-40 0-72-32-72-72V264c0-40 32-72 72-72h320c40 0 72 32 72 72v512c0 40-32 72-72 72zM400 208c-31.2 0-56 24.8-56 56v512c0 31.2 24.8 56 56 56h320c31.2 0 56-24.8 56-56V264c0-31.2-24.8-56-56-56H400z" fill="#233E49" p-id="3783"></path><path d="M688 776c0 35.2-28.8 64-64 64H320c-35.2 0-64-28.8-64-64V264c0-35.2 28.8-64 64-64h304c35.2 0 64 28.8 64 64v512z" fill="#415E6D" p-id="3784"></path><path d="M296 280h-72c-8.8 0-16-7.2-16-16s7.2-16 16-16h72c8.8 0 16 7.2 16 16s-7.2 16-16 16zM296 352h-72c-8.8 0-16-7.2-16-16s7.2-16 16-16h72c8.8 0 16 7.2 16 16s-7.2 16-16 16zM296 432h-72c-8.8 0-16-7.2-16-16s7.2-16 16-16h72c8.8 0 16 7.2 16 16s-7.2 16-16 16zM296 504h-72c-8.8 0-16-7.2-16-16s7.2-16 16-16h72c8.8 0 16 7.2 16 16s-7.2 16-16 16zM296 576h-72c-8.8 0-16-7.2-16-16s7.2-16 16-16h72c8.8 0 16 7.2 16 16s-7.2 16-16 16zM296 648h-72c-8.8 0-16-7.2-16-16s7.2-16 16-16h72c8.8 0 16 7.2 16 16s-7.2 16-16 16zM296 728h-72c-8.8 0-16-7.2-16-16s7.2-16 16-16h72c8.8 0 16 7.2 16 16s-7.2 16-16 16zM296 800h-72c-8.8 0-16-7.2-16-16s7.2-16 16-16h72c8.8 0 16 7.2 16 16s-7.2 16-16 16z" fill="#233E49" p-id="3785"></path><path d="M584 384c0 24.8-21.6 48-48 48H424c-26.4 0-48-23.2-48-48s21.6-48 48-48h112c26.4 0 48 23.2 48 48z" fill="#FFFFFF" p-id="3786"></path><path d="M624 848H320c-40 0-72-32-72-72V264c0-40 32-72 72-72h304c40 0 72 32 72 72v512c0 40-32 72-72 72zM320 208c-31.2 0-56 24.8-56 56v512c0 31.2 24.8 56 56 56h304c31.2 0 56-24.8 56-56V264c0-31.2-24.8-56-56-56H320z" fill="#233E49" p-id="3787"></path><path d="M808 528c0 26.4-21.6 48-48 48H616c-26.4 0-48-21.6-48-48v-8c0-26.4 21.6-48 48-48h144c26.4 0 48 21.6 48 48v8z" fill="#415E6D" p-id="3788"></path><path d="M680 472h77.6c26.4 0 50.4 23.2 50.4 49.6v8c0 26.4-24 46.4-50.4 46.4H680V472z" fill="#2D4552" p-id="3789"></path><path d="M628 524m-20 0a20 20 0 1 0 40 0 20 20 0 1 0-40 0Z" fill="#FBD000" p-id="3790"></path><path d="M760 584H616c-31.2 0-56-24.8-56-56v-8c0-31.2 24.8-56 56-56h144c31.2 0 56 24.8 56 56v8c0 31.2-24.8 56-56 56zM616 480c-22.4 0-40 17.6-40 40v8c0 22.4 17.6 40 40 40h144c22.4 0 40-17.6 40-40v-8c0-22.4-17.6-40-40-40H616z" fill="#233E49" p-id="3791"></path><path d="M888 440c-17.6 0-32-14.4-32-32s14.4-32 32-32 32 14.4 32 32-14.4 32-32 32z m0-48.8c-9.6 0-16.8 8-16.8 16.8 0 9.6 8 16.8 16.8 16.8 9.6 0 16.8-8 16.8-16.8 0-9.6-7.2-16.8-16.8-16.8zM112 592c-17.6 0-32-14.4-32-32s14.4-32 32-32 32 14.4 32 32-14.4 32-32 32z m0-48.8c-9.6 0-16.8 8-16.8 16.8 0 9.6 8 16.8 16.8 16.8 9.6 0 16.8-8 16.8-16.8 0-9.6-7.2-16.8-16.8-16.8zM455.2 99.2c0-3.2-3.2-6.4-8-7.2l-15.2-2.4c-4-0.8-8.8-4.8-8.8-8.8l-2.4-15.2c-0.8-4-4-8-7.2-8s-6.4 3.2-7.2 8l-2.4 15.2c-0.8 4-4.8 8.8-8.8 8.8l-15.2 2.4c-4 0.8-8 4-8 7.2s3.2 6.4 8 7.2l15.2 2.4c4 0.8 8.8 4.8 8.8 8.8l2.4 15.2c0.8 4 4 8 7.2 8s6.4-3.2 6.4-8l2.4-16.8c0.8-4 4.8-8 8.8-8.8l14.4-0.8c5.6-1.6 9.6-4 9.6-7.2zM917.6 659.2c0-3.2-3.2-6.4-8-7.2l-15.2-2.4c-4-0.8-8.8-4.8-8.8-8.8l-2.4-15.2c-0.8-4-4-8-7.2-8s-6.4 3.2-7.2 8l-2.4 15.2c-0.8 4-4.8 8.8-8.8 8.8l-15.2 2.4c-4 0.8-8 4-8 7.2s3.2 6.4 8 7.2l15.2 2.4c4 0.8 8.8 4.8 8.8 8.8l2.4 15.2c0.8 4 4 8 7.2 8s6.4-3.2 6.4-8l2.4-16.8c0.8-4 4.8-8 8.8-8.8l14.4-0.8c6.4-1.6 9.6-4 9.6-7.2z" fill="#FFFFFF" p-id="3792"></path><path d="M792.8 848H194.4c-4.8 0-8-3.2-8-8s3.2-8 8-8h598.4c4.8 0 8 3.2 8 8s-4 8-8 8zM884.8 848h-60c-4.8 0-8-3.2-8-8s3.2-8 8-8h60c4.8 0 8 3.2 8 8s-4 8-8 8z" fill="#233E49" p-id="3793"></path><path d="M424 368h88" fill="#FFFFFF" p-id="3794"></path><path d="M512 376H424c-4.8 0-8-3.2-8-8s3.2-8 8-8h88c4.8 0 8 3.2 8 8s-3.2 8-8 8z" fill="#0C508E" opacity=".5" p-id="3795"></path><path d="M424 400h128" fill="#FFFFFF" p-id="3796"></path><path d="M552 408H424c-4.8 0-8-3.2-8-8s3.2-8 8-8h128c4.8 0 8 3.2 8 8s-3.2 8-8 8z" fill="#0C508E" opacity=".5" p-id="3797"></path></svg>